<svg width="317" height="247" viewBox="0 0 317 247" fill="none" xmlns="http://www.w3.org/2000/svg">
<g filter="url(#filter0_d)">
<path fill-rule="evenodd" clip-rule="evenodd" d="M156.669 18.3026C178.728 21.8041 200.319 19.3537 221.51 26.4949C251.653 36.6526 289.181 40.1939 304.875 68.2453C320.821 96.7474 309.911 133.332 298.424 163.97C287.363 193.471 270.941 225.189 241.862 236.31C214.027 246.956 179.856 221.725 156.669 218.185C133.481 214.645 110.314 220.911 88.2474 212.856C59.2768 202.28 24.9647 193.2 11.3639 165.141C-2.52885 136.48 8.29804 101.708 19.9974 72.0533C31.104 43.9009 47.3842 14.2234 75.2228 3.27491C101.6 -7.09902 128.723 13.8668 156.669 18.3026Z" fill="#42E2B8"/>
</g>
<defs>
<filter id="filter0_d" x="0.827637" y="0.42627" width="316.053" height="246.486" filterUnits="userSpaceOnUse" color-interpolation-filters="sRGB">
<feFlood flood-opacity="0" result="BackgroundImageFix"/>
<feColorMatrix in="SourceAlpha" type="matrix" values="0 0 0 0 0 0 0 0 0 0 0 0 0 0 0 0 0 0 127 0"/>
<feOffset dy="4"/>
<feGaussianBlur stdDeviation="2"/>
<feColorMatrix type="matrix" values="0 0 0 0 0 0 0 0 0 0 0 0 0 0 0 0 0 0 0.25 0"/>
<feBlend mode="normal" in2="BackgroundImageFix" result="effect1_dropShadow"/>
<feBlend mode="normal" in="SourceGraphic" in2="effect1_dropShadow" result="shape"/>
</filter>
</defs>
</svg>
